<svg width="258.000000" height="59.265625" viewBox="0 0 258 59.2656" fill="none" xmlns="http://www.w3.org/2000/svg" xmlns:xlink="http://www.w3.org/1999/xlink">
	<desc>
			Created with Pixso.
	</desc>
	<defs/>
	<rect id="Component 1" width="258.000000" height="59.000000" transform="translate(0.000004 0.000000)" fill="#FFFFFF" fill-opacity="0"/>
	<path id="newmortgage" d="M173.97 18.66L173.97 26.22Q173.97 28.74 174.17 30.29Q174.37 31.83 174.92 32.67Q175.1 32.93 175.32 33.13Q175.81 33.59 176.53 33.8Q177.58 34.1 179.23 34.1L180.02 34.1L180.02 31.26L179.12 31.26Q178.15 31.23 177.65 30.94Q177.15 30.65 176.98 29.58Q176.82 28.52 176.82 26.22L176.82 18.66L179.99 18.66L179.99 16L176.82 16L176.82 8.8L173.97 8.8L173.97 16L170.84 16L170.84 18.66L173.97 18.66ZM51.72 34L54.56 34L54.56 23.3Q54.56 20.86 53.52 19.19Q52.95 18.27 52.16 17.59Q51.51 17.03 50.72 16.65Q50.44 16.5 50.14 16.38Q48.64 15.78 46.89 15.78Q46.02 15.78 45.18 15.94Q44.53 16.07 43.9 16.3Q42.81 16.7 42.06 17.45Q41.83 17.67 41.64 17.94L41.64 16L38.8 16L38.8 34L41.64 34L41.64 23.3Q41.64 21.72 42.39 20.7Q42.41 20.67 42.43 20.64Q42.93 19.98 43.59 19.54Q43.97 19.28 44.4 19.1Q45.47 18.63 46.56 18.59Q46.66 18.59 46.75 18.59Q47.38 18.59 47.99 18.71Q48.56 18.82 49.11 19.04Q49.5 19.19 49.85 19.42Q50.5 19.85 50.98 20.53Q51.72 21.58 51.72 23.3L51.72 34ZM132.14 34L134.95 34L134.95 23.38Q134.95 20.96 133.94 19.27Q133.25 18.11 132.26 17.34Q131.8 16.98 131.28 16.7Q130.59 16.33 129.85 16.12Q128.83 15.82 127.72 15.82Q126.8 15.82 125.91 16Q125.03 16.17 124.19 16.52Q123.19 16.93 122.45 17.61Q121.92 18.09 121.52 18.69Q120.84 17.8 119.96 17.19Q119.36 16.77 118.66 16.48Q117.32 15.93 115.95 15.81Q115.57 15.78 115.19 15.78Q114.49 15.8 113.82 15.94Q113.18 16.08 112.56 16.32Q111.95 16.56 111.42 16.93Q110.86 17.31 110.4 17.83L110.4 16L107.56 16L107.56 34L110.4 34L110.4 23.38Q110.4 21.68 111.13 20.63Q111.65 19.89 112.34 19.42Q112.65 19.22 112.99 19.06Q114.11 18.55 115.19 18.55Q116.81 18.55 118 19.27Q118.32 19.46 118.61 19.7Q118.71 19.8 118.82 19.9Q119.98 21.06 119.98 23.38L119.98 34L122.74 34L122.74 23.38Q122.74 21.19 123.83 20.01Q123.97 19.87 124.12 19.74Q124.43 19.47 124.77 19.26Q125.96 18.55 127.57 18.55Q129.12 18.55 130.23 19.25Q130.57 19.46 130.87 19.74Q130.91 19.78 130.96 19.83Q132.14 21.02 132.14 23.38L132.14 34ZM60.43 25.86L74.43 25.86Q74.58 24.24 74.45 22.88Q74.33 21.51 73.86 20.39Q73.23 18.87 72.14 17.85Q71.6 17.35 70.94 16.97Q68.97 15.82 66.15 15.82Q62.39 15.78 60.2 17.62Q59.9 17.87 59.62 18.16Q59.27 18.53 58.98 18.94Q57.37 21.15 57.37 24.53Q57.37 29.09 59.63 31.69Q59.69 31.75 59.75 31.82Q60.15 32.26 60.62 32.63Q62.89 34.41 66.62 34.32Q68.53 34.29 70.43 33.63Q72.35 32.98 74.11 31.62L72.6 29.39Q70.74 30.78 68.67 31.29Q68.65 31.29 68.63 31.3Q66.55 31.8 64.71 31.37Q63.58 31.1 62.7 30.49Q62.15 30.1 61.69 29.57Q60.5 28.2 60.43 25.86ZM242.05 25.86L256.05 25.86Q256.2 24.24 256.07 22.88Q255.95 21.51 255.48 20.39Q254.85 18.87 253.76 17.85Q253.22 17.35 252.56 16.97Q250.59 15.82 247.77 15.82Q244.01 15.78 241.82 17.62Q241.52 17.87 241.24 18.16Q240.89 18.53 240.6 18.94Q238.99 21.15 238.99 24.53Q238.99 29.09 241.25 31.69Q241.31 31.75 241.37 31.82Q241.77 32.26 242.24 32.63Q244.51 34.41 248.24 34.32Q250.15 34.29 252.06 33.63Q253.97 32.98 255.73 31.62L254.22 29.39Q252.36 30.78 250.29 31.29Q250.27 31.29 250.25 31.3Q248.17 31.8 246.33 31.37Q245.2 31.1 244.32 30.49Q243.77 30.1 243.31 29.57Q242.12 28.2 242.05 25.86ZM142 33.32Q143.96 34.43 146.54 34.43Q148.98 34.43 150.88 33.41Q150.97 33.36 151.06 33.31Q151.86 32.85 152.52 32.24Q153.48 31.36 154.14 30.16Q155.25 28.12 155.25 25.39Q155.25 22.23 154.14 20.1Q153.34 18.58 152.11 17.6Q151.62 17.21 151.06 16.9Q149.1 15.82 146.54 15.82Q144.29 15.82 142.47 16.71Q142.28 16.8 142.1 16.9Q141.59 17.18 141.14 17.52Q139.84 18.52 138.98 20.1Q137.83 22.23 137.83 25.39Q137.83 28.12 138.93 30.16Q139.57 31.33 140.48 32.2Q141.16 32.84 141.99 33.31L142 33.32ZM191.1 41.34Q191.16 41.34 191.22 41.34Q194.48 41.34 196.3 39.72Q196.54 39.5 196.76 39.25Q196.86 39.14 196.96 39.02Q198.6 36.96 198.6 33.6L198.6 16L195.72 16L195.72 16.93Q193.2 15.82 190.84 15.87Q188.88 15.92 187.28 16.7Q186.95 16.85 186.65 17.04Q186.22 17.3 185.84 17.61Q184.57 18.64 183.76 20.25Q182.73 22.33 182.8 25.32Q182.86 27.6 183.81 29.42Q183.91 29.61 184.02 29.8Q184.77 31.09 185.84 32.02Q186.4 32.51 187.04 32.9Q187.77 33.34 188.56 33.62Q189.79 34.06 191.16 34.1Q191.23 34.1 191.3 34.1Q193.48 34.13 195.68 32.88Q195.68 34.17 195.53 35.03Q195.53 35.06 195.52 35.09Q195.38 35.93 195 36.73Q194.69 37.33 194.21 37.74Q193.69 38.17 192.97 38.37Q191.58 38.75 189.98 38.37Q188.78 38.09 187.76 37.49Q187.43 37.29 187.11 37.05L185.32 39.08Q186.39 40.08 187.99 40.71Q189.54 41.32 191.1 41.34ZM228.33 41.34Q228.38 41.34 228.44 41.34Q231.71 41.34 233.52 39.72Q233.77 39.5 233.99 39.25Q234.09 39.14 234.18 39.02Q235.82 36.96 235.82 33.6L235.82 16L232.94 16L232.94 16.93Q230.43 15.82 228.06 15.87Q226.1 15.92 224.5 16.7Q224.18 16.85 223.87 17.04Q223.45 17.3 223.06 17.61Q221.79 18.64 220.99 20.25Q219.95 22.33 220.02 25.32Q220.08 27.6 221.03 29.42Q221.13 29.61 221.24 29.8Q222 31.09 223.07 32.02Q223.62 32.51 224.27 32.9Q225 33.34 225.79 33.62Q227.02 34.06 228.39 34.1Q228.46 34.1 228.52 34.1Q230.71 34.13 232.91 32.88Q232.91 34.17 232.76 35.03Q232.75 35.06 232.75 35.09Q232.6 35.93 232.22 36.73Q231.91 37.33 231.43 37.74Q230.91 38.17 230.19 38.37Q228.8 38.75 227.2 38.37Q226 38.09 224.99 37.49Q224.65 37.29 224.34 37.05L222.54 39.08Q223.62 40.08 225.22 40.71Q226.77 41.32 228.33 41.34ZM204 33.1Q205.57 34.11 207.75 34.17Q209.33 34.21 210.95 33.75Q212.01 33.44 212.95 32.91Q213.44 32.63 213.9 32.3L213.9 34L216.78 34L216.78 24.89Q216.78 23.19 216.7 21.72Q216.63 20.24 216.18 19.11Q216.1 18.89 215.99 18.69Q215.51 17.83 214.55 17.25Q213.32 16.39 211.7 16.07Q210.09 15.74 208.35 15.96Q207.92 16.01 207.5 16.1Q206.23 16.36 205.02 16.94Q204.19 17.33 203.48 17.89Q202.84 18.4 202.31 19.05L204.07 20.93Q204.14 20.83 204.2 20.73Q204.84 19.85 205.91 19.29Q206.4 19.03 206.92 18.84Q207.65 18.58 208.44 18.46Q209.79 18.26 211.03 18.52Q212.28 18.76 213.07 19.5L213.07 19.5Q213.28 19.69 213.43 19.92Q213.86 20.57 213.86 21.51L213.86 22.8Q210.48 22.19 207.74 22.62Q205 23.05 203.42 24.58Q203.13 24.86 202.89 25.19Q201.84 26.61 201.84 28.81Q201.84 30.71 202.75 31.94Q203.08 32.39 203.53 32.76Q203.76 32.94 204 33.1ZM98.95 34L105.04 16L102.02 16L97.08 31.01L92.15 16L88.8 16L83.87 31.04L78.9 16L75.88 16L81.99 34L85.74 34L90.46 19.34L95.17 34L98.95 34ZM158.5 16.21L158.5 34L161.34 34L161.34 22.37Q161.33 22.1 161.37 21.83Q161.51 21.05 162.13 20.35Q162.23 20.24 162.34 20.14Q163.13 19.37 164.34 19.04Q164.41 19.02 164.47 19Q165.81 18.68 167.35 19.24L168.68 16.72Q166.02 15.96 164.27 16.25Q163.47 16.38 162.78 16.74Q161.98 17.15 161.34 17.87L161.34 16.21L158.5 16.21ZM62.75 19.35Q64.28 18.48 66.3 18.48Q68.73 18.48 70.19 19.67Q70.29 19.75 70.38 19.84Q70.77 20.18 71.05 20.6Q71.88 21.79 71.88 23.55L60.43 23.55Q60.43 21.78 61.28 20.62Q61.63 20.13 62.14 19.76Q62.43 19.54 62.75 19.35ZM244.37 19.35Q245.9 18.48 247.92 18.48Q250.35 18.48 251.81 19.67Q251.91 19.75 252 19.84Q252.39 20.18 252.67 20.6Q253.5 21.79 253.5 23.55L242.05 23.55Q242.05 21.78 242.9 20.62Q243.26 20.13 243.76 19.76Q244.06 19.54 244.37 19.35ZM149.78 30.85Q148.45 31.69 146.54 31.69Q144.6 31.69 143.26 30.85Q142.57 30.4 142.05 29.8Q141.59 29.25 141.27 28.58Q140.6 27.16 140.6 25.39Q140.6 22.82 141.77 21.01Q141.93 20.76 142.11 20.53Q142.55 19.97 143.09 19.58Q144.46 18.59 146.54 18.59Q148.57 18.59 149.93 19.54Q150.5 19.94 150.95 20.51Q151.12 20.72 151.26 20.93Q152.48 22.75 152.48 25.39Q152.48 26.96 151.92 28.29Q151.86 28.43 151.8 28.56Q151.45 29.29 150.94 29.87Q150.44 30.43 149.78 30.85ZM186.58 28.58Q185.68 27.26 185.64 25.32Q185.6 22.19 186.89 20.52Q187.39 19.88 188.03 19.46Q189.07 18.77 190.48 18.65Q192.76 18.45 195.72 19.77L195.72 30.11Q193.96 31.01 192.19 31.1Q190.57 31.18 189.19 30.64Q189.07 30.59 188.95 30.54Q188.13 30.18 187.49 29.62Q186.98 29.16 186.58 28.58ZM223.8 28.58Q222.9 27.26 222.86 25.32Q222.82 22.19 224.12 20.52Q224.61 19.88 225.25 19.46Q226.29 18.77 227.7 18.65Q229.99 18.45 232.94 19.77L232.94 30.11Q231.18 31.01 229.42 31.1Q227.8 31.18 226.42 30.64Q226.3 30.59 226.17 30.54Q225.35 30.18 224.71 29.62Q224.2 29.16 223.8 28.58ZM213.83 25.03L213.83 29.75Q212.92 30.43 211.7 30.9Q210.58 31.33 209.42 31.49Q209.32 31.5 209.21 31.52Q207.96 31.66 206.89 31.45Q205.88 31.24 205.23 30.64Q205.19 30.61 205.16 30.58Q205.06 30.47 204.97 30.36Q204.5 29.74 204.5 28.77Q204.5 27.47 205.12 26.61Q205.75 25.74 207.02 25.32Q209.54 24.49 213.83 25.03Z" fill="#FFFFFF" fill-opacity="1.000000" fill-rule="evenodd"/>
	<path id="funding" d="M169.02 46.12Q169.46 45.9 170.4 45.95L170.4 44.73Q169.07 44.65 168.35 45.04Q167.97 45.24 167.71 45.54Q167.47 45.82 167.34 46.18Q167.06 46.94 167.06 48.01L165.64 48.01L165.64 49.12L167.06 49.12L167.06 56.01L168.31 56.01L168.31 49.12L169.8 49.12L169.8 48.01L168.31 48.01Q168.31 47.28 168.44 46.8Q168.52 46.56 168.66 46.39Q168.81 46.22 169.02 46.12ZM210.35 55.49Q210.94 55.89 211.73 55.98Q212.28 56.07 212.81 55.98Q213.04 55.94 213.26 55.87Q213.99 55.63 214.44 55.24L214.44 56L215.71 56L215.71 44.8L214.44 44.8L214.44 48.33Q213.85 48.03 213.35 47.96Q212.84 47.9 212.38 47.9Q211.23 47.9 210.42 48.42Q210.12 48.61 209.88 48.85Q209.46 49.27 209.19 49.85Q208.76 50.75 208.76 51.92Q208.76 53 209.1 53.88Q209.37 54.57 209.83 55.06Q209.96 55.19 210.1 55.31Q210.22 55.41 210.35 55.49ZM224.83 46.88Q224.98 46.94 225.16 46.94Q225.34 46.94 225.49 46.87Q225.63 46.81 225.75 46.69Q225.88 46.57 225.94 46.41Q226 46.27 226 46.09Q226 45.91 225.94 45.75Q225.87 45.61 225.75 45.49Q225.63 45.37 225.48 45.3Q225.33 45.24 225.16 45.24Q224.98 45.24 224.84 45.3Q224.68 45.36 224.55 45.49Q224.44 45.61 224.38 45.74Q224.31 45.9 224.31 46.09Q224.31 46.27 224.37 46.42Q224.43 46.57 224.55 46.69Q224.68 46.82 224.83 46.88ZM199.22 56L200.48 56L200.48 51.24Q200.48 50.16 200.02 49.41Q199.76 49 199.42 48.7Q199.13 48.46 198.78 48.28Q198.65 48.22 198.52 48.17Q197.85 47.9 197.07 47.9Q196.69 47.9 196.31 47.97Q196.03 48.03 195.75 48.13Q195.26 48.31 194.93 48.64Q194.83 48.74 194.74 48.86L194.74 48L193.48 48L193.48 56L194.74 56L194.74 51.24Q194.74 50.54 195.07 50.08Q195.08 50.07 195.09 50.06Q195.31 49.77 195.61 49.57Q195.77 49.46 195.96 49.37Q196.44 49.17 196.93 49.15Q196.97 49.15 197.01 49.15Q197.29 49.15 197.56 49.2Q197.81 49.25 198.06 49.35Q198.24 49.42 198.39 49.52Q198.68 49.71 198.89 50.01Q199.22 50.48 199.22 51.24L199.22 56ZM240.35 56L241.61 56L241.61 51.24Q241.61 50.16 241.15 49.41Q240.89 49 240.54 48.7Q240.26 48.46 239.91 48.28Q239.78 48.22 239.65 48.17Q238.98 47.9 238.2 47.9Q237.81 47.9 237.44 47.97Q237.15 48.03 236.87 48.13Q236.39 48.31 236.06 48.64Q235.95 48.74 235.87 48.86L235.87 48L234.6 48L234.6 56L235.87 56L235.87 51.24Q235.87 50.54 236.2 50.08Q236.21 50.07 236.22 50.06Q236.44 49.77 236.73 49.57Q236.9 49.46 237.09 49.37Q237.57 49.17 238.05 49.15Q238.1 49.15 238.14 49.15Q238.42 49.15 238.69 49.2Q238.94 49.25 239.19 49.35Q239.36 49.42 239.52 49.52Q239.81 49.71 240.02 50.01Q240.35 50.48 240.35 51.24L240.35 56ZM253.58 59.26Q253.61 59.26 253.63 59.26Q255.09 59.26 255.89 58.54Q256 58.44 256.1 58.33Q256.14 58.28 256.19 58.23Q256.92 57.31 256.92 55.82L256.92 48L255.63 48L255.63 48.41Q254.52 47.92 253.47 47.94Q252.59 47.96 251.88 48.31Q251.74 48.38 251.6 48.46Q251.41 48.57 251.24 48.71Q250.68 49.17 250.32 49.89Q249.86 50.81 249.89 52.14Q249.92 53.15 250.34 53.96Q250.39 54.05 250.44 54.13Q250.77 54.7 251.25 55.12Q251.49 55.33 251.78 55.51Q252.1 55.7 252.46 55.83Q253 56.02 253.61 56.04Q253.64 56.04 253.67 56.04Q254.64 56.06 255.62 55.5Q255.62 56.07 255.55 56.46Q255.55 56.47 255.55 56.48Q255.48 56.86 255.31 57.21Q255.18 57.48 254.97 57.66Q254.73 57.85 254.41 57.94Q253.79 58.11 253.08 57.94Q252.55 57.81 252.1 57.55Q251.95 57.46 251.81 57.35L251.01 58.25Q251.49 58.7 252.2 58.98Q252.89 59.25 253.58 59.26ZM183.61 56L184.88 56L184.88 48L183.61 48L183.61 52.83Q183.61 53.56 183.27 54.03Q183.02 54.37 182.7 54.58Q182.57 54.67 182.42 54.73Q181.92 54.96 181.42 54.96Q180.51 54.96 179.91 54.53Q179.85 54.49 179.79 54.44Q179.72 54.38 179.65 54.31Q179.17 53.8 179.17 52.83L179.17 48L177.88 48L177.88 52.83Q177.88 53.66 178.15 54.3Q178.39 54.88 178.8 55.27Q178.85 55.31 178.89 55.35Q179.36 55.77 180.03 55.97Q180.34 56.06 180.66 56.11Q181.03 56.16 181.4 56.15Q182.11 56.12 182.7 55.89Q183.17 55.69 183.47 55.35Q183.55 55.26 183.61 55.16L183.61 56ZM224.56 56L225.77 56L225.77 48L224.56 48L224.56 56ZM214.44 49.53L214.44 54.17Q213.63 54.73 212.85 54.83Q212.27 54.9 211.77 54.74Q211.6 54.69 211.44 54.6Q211.26 54.52 211.1 54.4Q210.69 54.1 210.42 53.6Q210.05 52.92 210.05 51.92Q210.05 50.67 210.67 49.97L210.67 49.97Q210.89 49.72 211.16 49.55Q211.65 49.24 212.29 49.16Q213.29 49.05 214.44 49.53ZM251.57 53.59Q251.17 53 251.15 52.14Q251.14 50.75 251.71 50.01Q251.93 49.72 252.22 49.53Q252.68 49.23 253.31 49.17Q254.32 49.08 255.63 49.67L255.63 54.27Q254.85 54.67 254.07 54.71Q253.35 54.75 252.74 54.51Q252.68 54.48 252.63 54.46Q252.26 54.3 251.98 54.05Q251.75 53.85 251.57 53.59Z" fill="#FFFFFF" fill-opacity="1.000000" fill-rule="evenodd"/>
	<path id="Subtract" d="M12.9613 33.5004L12.325 45.6929L21.1269 34.7865L34.1837 39.8155L26.567 28.0451L35.368 17.138L28.0288 19.1111C25.8904 24.9029 20.3965 30.221 12.9613 33.5004ZM27.4244 19.2736C24.9104 24.6175 18.7421 28.8696 10.8367 30.8227L0 26.6479L13.5089 23.015L14.2414 8.99997L21.8589 20.7698L27.4244 19.2736Z" clip-rule="evenodd" fill="#FFFFFF" fill-opacity="1.000000" fill-rule="evenodd"/>
</svg>
