<svg width="259.000000" height="59.265625" viewBox="0 0 259 59.2656" fill="none" xmlns="http://www.w3.org/2000/svg" xmlns:xlink="http://www.w3.org/1999/xlink">
	<desc>
			Created with Pixso.
	</desc>
	<defs/>
	<path id="newmortgage" d="M174.69 18.66L174.69 26.22Q174.69 28.74 174.89 30.29Q175.09 31.83 175.64 32.67Q175.82 32.93 176.04 33.13Q176.53 33.59 177.25 33.8Q178.3 34.1 179.95 34.1L180.74 34.1L180.74 31.26L179.84 31.26Q178.87 31.23 178.37 30.94Q177.87 30.65 177.7 29.58Q177.54 28.52 177.54 26.22L177.54 18.66L180.71 18.66L180.71 16L177.54 16L177.54 8.8L174.69 8.8L174.69 16L171.56 16L171.56 18.66L174.69 18.66ZM132.86 34L135.67 34L135.67 23.38Q135.67 20.96 134.66 19.27Q133.97 18.11 132.98 17.34Q132.52 16.98 132 16.7Q131.31 16.33 130.57 16.12Q129.55 15.82 128.44 15.82Q127.52 15.82 126.63 16Q125.75 16.17 124.91 16.52Q123.91 16.93 123.17 17.61Q122.64 18.09 122.24 18.69Q121.56 17.8 120.68 17.19Q120.08 16.77 119.38 16.48Q118.04 15.93 116.67 15.81Q116.29 15.78 115.91 15.78Q115.21 15.8 114.54 15.94Q113.9 16.08 113.28 16.32Q112.67 16.56 112.14 16.93Q111.58 17.31 111.12 17.83L111.12 16L108.28 16L108.28 34L111.12 34L111.12 23.38Q111.12 21.68 111.85 20.63Q112.37 19.89 113.06 19.42Q113.37 19.22 113.71 19.06Q114.83 18.55 115.91 18.55Q117.53 18.55 118.72 19.27Q119.04 19.46 119.33 19.7Q119.43 19.8 119.54 19.9Q120.7 21.06 120.7 23.38L120.7 34L123.46 34L123.46 23.38Q123.46 21.19 124.55 20.01Q124.69 19.87 124.84 19.74Q125.15 19.47 125.49 19.26Q126.68 18.55 128.29 18.55Q129.84 18.55 130.95 19.25Q131.29 19.46 131.59 19.74Q131.63 19.78 131.68 19.83Q132.86 21.02 132.86 23.38L132.86 34ZM242.77 25.86L256.77 25.86Q256.92 24.24 256.79 22.88Q256.67 21.51 256.2 20.39Q255.57 18.87 254.48 17.85Q253.94 17.35 253.28 16.97Q251.31 15.82 248.49 15.82Q244.73 15.78 242.54 17.62Q242.24 17.87 241.96 18.16Q241.61 18.53 241.32 18.94Q239.71 21.15 239.71 24.53Q239.71 29.09 241.97 31.69Q242.03 31.75 242.09 31.82Q242.49 32.26 242.96 32.63Q245.23 34.41 248.96 34.32Q250.87 34.29 252.78 33.63Q254.69 32.98 256.45 31.62L254.94 29.39Q253.08 30.78 251.01 31.29Q250.99 31.29 250.97 31.3Q248.89 31.8 247.05 31.37Q245.92 31.1 245.04 30.49Q244.49 30.1 244.03 29.57Q242.84 28.2 242.77 25.86ZM142.72 33.32Q144.68 34.43 147.26 34.43Q149.7 34.43 151.6 33.41Q151.69 33.36 151.78 33.31Q152.58 32.85 153.24 32.24Q154.2 31.36 154.86 30.16Q155.97 28.12 155.97 25.39Q155.97 22.23 154.86 20.1Q154.06 18.58 152.83 17.6Q152.34 17.21 151.78 16.9Q149.82 15.82 147.26 15.82Q145.01 15.82 143.19 16.71Q143 16.8 142.82 16.9Q142.31 17.18 141.86 17.52Q140.56 18.52 139.7 20.1Q138.55 22.23 138.55 25.39Q138.55 28.12 139.65 30.16Q140.28 31.33 141.2 32.2Q141.88 32.84 142.71 33.31L142.72 33.32ZM191.82 41.34Q191.88 41.34 191.94 41.34Q195.2 41.34 197.02 39.72Q197.26 39.5 197.48 39.25Q197.58 39.14 197.68 39.02Q199.32 36.96 199.32 33.6L199.32 16L196.44 16L196.44 16.93Q193.92 15.82 191.56 15.87Q189.6 15.92 188 16.7Q187.67 16.85 187.37 17.04Q186.94 17.3 186.56 17.61Q185.29 18.64 184.48 20.25Q183.45 22.33 183.52 25.32Q183.58 27.6 184.53 29.42Q184.63 29.61 184.74 29.8Q185.49 31.09 186.56 32.02Q187.12 32.51 187.76 32.9Q188.49 33.34 189.28 33.62Q190.51 34.06 191.88 34.1Q191.95 34.1 192.02 34.1Q194.2 34.13 196.4 32.88Q196.4 34.17 196.25 35.03Q196.25 35.06 196.24 35.09Q196.1 35.93 195.72 36.73Q195.41 37.33 194.93 37.74Q194.41 38.17 193.69 38.37Q192.3 38.75 190.7 38.37Q189.5 38.09 188.48 37.49Q188.15 37.29 187.83 37.05L186.04 39.08Q187.11 40.08 188.71 40.71Q190.26 41.32 191.82 41.34ZM229.05 41.34Q229.1 41.34 229.16 41.34Q232.43 41.34 234.24 39.72Q234.49 39.5 234.71 39.25Q234.81 39.14 234.9 39.02Q236.54 36.96 236.54 33.6L236.54 16L233.66 16L233.66 16.93Q231.15 15.82 228.78 15.87Q226.82 15.92 225.22 16.7Q224.9 16.85 224.59 17.04Q224.17 17.3 223.78 17.61Q222.51 18.64 221.71 20.25Q220.67 22.33 220.74 25.32Q220.8 27.6 221.75 29.42Q221.85 29.61 221.96 29.8Q222.72 31.09 223.79 32.02Q224.34 32.51 224.99 32.9Q225.72 33.34 226.51 33.62Q227.74 34.06 229.11 34.1Q229.18 34.1 229.24 34.1Q231.43 34.13 233.63 32.88Q233.63 34.17 233.48 35.03Q233.47 35.06 233.47 35.09Q233.32 35.93 232.94 36.73Q232.63 37.33 232.15 37.74Q231.63 38.17 230.91 38.37Q229.52 38.75 227.92 38.37Q226.72 38.09 225.71 37.49Q225.37 37.29 225.06 37.05L223.26 39.08Q224.34 40.08 225.94 40.71Q227.49 41.32 229.05 41.34ZM204.72 33.1Q206.29 34.11 208.47 34.17Q210.05 34.21 211.67 33.75Q212.73 33.44 213.67 32.91Q214.16 32.63 214.62 32.3L214.62 34L217.5 34L217.5 24.89Q217.5 23.19 217.42 21.72Q217.35 20.24 216.9 19.11Q216.82 18.89 216.71 18.69Q216.23 17.83 215.27 17.25Q214.04 16.39 212.42 16.07Q210.81 15.74 209.07 15.96Q208.64 16.01 208.22 16.1Q206.95 16.36 205.74 16.94Q204.91 17.33 204.2 17.89Q203.56 18.4 203.03 19.05L204.79 20.93Q204.86 20.83 204.92 20.73Q205.56 19.85 206.63 19.29Q207.12 19.03 207.64 18.84Q208.37 18.58 209.16 18.46Q210.52 18.26 211.75 18.52Q213 18.76 213.79 19.5L213.79 19.5Q214 19.69 214.15 19.92Q214.58 20.57 214.58 21.51L214.58 22.8Q211.2 22.19 208.46 22.62Q205.72 23.05 204.14 24.58Q203.85 24.86 203.61 25.19Q202.56 26.61 202.56 28.81Q202.56 30.71 203.47 31.94Q203.8 32.39 204.25 32.76Q204.48 32.94 204.72 33.1ZM159.22 16.21L159.22 34L162.06 34L162.06 22.37Q162.05 22.1 162.09 21.83Q162.23 21.05 162.85 20.35Q162.95 20.24 163.06 20.14Q163.85 19.37 165.06 19.04Q165.13 19.02 165.19 19Q166.53 18.68 168.07 19.24L169.4 16.72Q166.74 15.96 164.99 16.25Q164.19 16.38 163.5 16.74Q162.7 17.15 162.06 17.87L162.06 16.21L159.22 16.21ZM245.09 19.35Q246.62 18.48 248.64 18.48Q251.07 18.48 252.53 19.67Q252.63 19.75 252.72 19.84Q253.11 20.18 253.39 20.6Q254.22 21.79 254.22 23.55L242.77 23.55Q242.77 21.78 243.62 20.62Q243.98 20.13 244.48 19.76Q244.78 19.54 245.09 19.35ZM150.5 30.85Q149.17 31.69 147.26 31.69Q145.32 31.69 143.98 30.85Q143.28 30.4 142.77 29.8Q142.31 29.25 141.99 28.58Q141.32 27.16 141.32 25.39Q141.32 22.82 142.49 21.01Q142.65 20.76 142.83 20.53Q143.27 19.97 143.81 19.58Q145.18 18.59 147.26 18.59Q149.29 18.59 150.65 19.54Q151.22 19.94 151.67 20.51Q151.84 20.72 151.98 20.93Q153.2 22.75 153.2 25.39Q153.2 26.96 152.64 28.29Q152.58 28.43 152.52 28.56Q152.17 29.29 151.66 29.87Q151.16 30.43 150.5 30.85ZM187.3 28.58Q186.4 27.26 186.36 25.32Q186.32 22.19 187.61 20.52Q188.11 19.88 188.75 19.46Q189.79 18.77 191.2 18.65Q193.48 18.45 196.44 19.77L196.44 30.11Q194.68 31.01 192.91 31.1Q191.29 31.18 189.91 30.64Q189.79 30.59 189.67 30.54Q188.85 30.18 188.21 29.62Q187.7 29.16 187.3 28.58ZM224.52 28.58Q223.62 27.26 223.58 25.32Q223.54 22.19 224.84 20.52Q225.33 19.88 225.97 19.46Q227.01 18.77 228.42 18.65Q230.71 18.45 233.66 19.77L233.66 30.11Q231.9 31.01 230.14 31.1Q228.52 31.18 227.14 30.64Q227.02 30.59 226.89 30.54Q226.07 30.18 225.43 29.62Q224.92 29.16 224.52 28.58ZM214.55 25.03L214.55 29.75Q213.64 30.43 212.42 30.9Q211.3 31.33 210.14 31.49Q210.04 31.5 209.93 31.52Q208.68 31.66 207.61 31.45Q206.6 31.24 205.95 30.64Q205.91 30.61 205.88 30.58Q205.78 30.47 205.69 30.36Q205.22 29.74 205.22 28.77Q205.22 27.47 205.84 26.61Q206.47 25.74 207.74 25.32Q210.26 24.49 214.55 25.03Z" fill="#126893" fill-opacity="1.000000" fill-rule="evenodd"/>
	<path id="newmortgage" d="M51.72 34L54.56 34L54.56 23.3Q54.56 20.86 53.52 19.19Q52.95 18.27 52.16 17.59Q51.51 17.03 50.72 16.65Q50.44 16.5 50.14 16.38Q48.64 15.78 46.89 15.78Q46.02 15.78 45.18 15.94Q44.53 16.07 43.9 16.3Q42.81 16.7 42.06 17.45Q41.83 17.67 41.64 17.94L41.64 16L38.8 16L38.8 34L41.64 34L41.64 23.3Q41.64 21.72 42.39 20.7Q42.41 20.67 42.43 20.64Q42.93 19.98 43.59 19.54Q43.97 19.28 44.4 19.1Q45.47 18.63 46.56 18.59Q46.66 18.59 46.75 18.59Q47.38 18.59 47.99 18.71Q48.56 18.82 49.11 19.04Q49.5 19.19 49.85 19.42Q50.5 19.85 50.98 20.53Q51.72 21.58 51.72 23.3L51.72 34ZM60.43 25.86L74.43 25.86Q74.58 24.24 74.45 22.88Q74.33 21.51 73.86 20.39Q73.23 18.87 72.14 17.85Q71.6 17.35 70.94 16.97Q68.97 15.82 66.15 15.82Q62.39 15.78 60.2 17.62Q59.9 17.87 59.62 18.16Q59.27 18.53 58.98 18.94Q57.37 21.15 57.37 24.53Q57.37 29.09 59.63 31.69Q59.69 31.75 59.75 31.82Q60.15 32.26 60.62 32.63Q62.89 34.41 66.62 34.32Q68.53 34.29 70.43 33.63Q72.35 32.98 74.11 31.62L72.6 29.39Q70.74 30.78 68.67 31.29Q68.65 31.29 68.63 31.3Q66.55 31.8 64.71 31.37Q63.58 31.1 62.7 30.49Q62.15 30.1 61.69 29.57Q60.5 28.2 60.43 25.86ZM98.95 34L105.04 16L102.02 16L97.08 31.01L92.15 16L88.8 16L83.87 31.04L78.9 16L75.88 16L81.99 34L85.74 34L90.46 19.34L95.17 34L98.95 34ZM62.75 19.35Q64.28 18.48 66.3 18.48Q68.73 18.48 70.19 19.67Q70.29 19.75 70.38 19.84Q70.77 20.18 71.05 20.6Q71.88 21.79 71.88 23.55L60.43 23.55Q60.43 21.78 61.28 20.62Q61.63 20.13 62.14 19.76Q62.43 19.54 62.75 19.35Z" fill="#383838" fill-opacity="1.000000" fill-rule="evenodd"/>
	<path id="funding" d="M169.02 46.12Q169.46 45.9 170.4 45.95L170.4 44.73Q169.07 44.65 168.35 45.04Q167.97 45.24 167.71 45.54Q167.47 45.82 167.34 46.18Q167.06 46.94 167.06 48.01L165.64 48.01L165.64 49.12L167.06 49.12L167.06 56.01L168.31 56.01L168.31 49.12L169.8 49.12L169.8 48.01L168.31 48.01Q168.31 47.28 168.44 46.8Q168.52 46.56 168.66 46.39Q168.81 46.22 169.02 46.12ZM210.35 55.49Q210.94 55.89 211.73 55.98Q212.28 56.07 212.81 55.98Q213.04 55.94 213.26 55.87Q213.99 55.63 214.44 55.24L214.44 56L215.71 56L215.71 44.8L214.44 44.8L214.44 48.33Q213.85 48.03 213.35 47.96Q212.84 47.9 212.38 47.9Q211.23 47.9 210.42 48.42Q210.12 48.61 209.88 48.85Q209.46 49.27 209.19 49.85Q208.76 50.75 208.76 51.92Q208.76 53 209.1 53.88Q209.37 54.57 209.83 55.06Q209.96 55.19 210.1 55.31Q210.22 55.41 210.35 55.49ZM224.83 46.88Q224.98 46.94 225.16 46.94Q225.34 46.94 225.49 46.87Q225.63 46.81 225.75 46.69Q225.88 46.57 225.94 46.41Q226 46.27 226 46.09Q226 45.91 225.94 45.75Q225.87 45.61 225.75 45.49Q225.63 45.37 225.48 45.3Q225.33 45.24 225.16 45.24Q224.98 45.24 224.84 45.3Q224.68 45.36 224.55 45.49Q224.44 45.61 224.38 45.74Q224.31 45.9 224.31 46.09Q224.31 46.27 224.37 46.42Q224.43 46.57 224.55 46.69Q224.68 46.82 224.83 46.88ZM199.22 56L200.48 56L200.48 51.24Q200.48 50.16 200.02 49.41Q199.76 49 199.42 48.7Q199.13 48.46 198.78 48.28Q198.65 48.22 198.52 48.17Q197.85 47.9 197.07 47.9Q196.69 47.9 196.31 47.97Q196.03 48.03 195.75 48.13Q195.26 48.31 194.93 48.64Q194.83 48.74 194.74 48.86L194.74 48L193.48 48L193.48 56L194.74 56L194.74 51.24Q194.74 50.54 195.07 50.08Q195.08 50.07 195.09 50.06Q195.31 49.77 195.61 49.57Q195.77 49.46 195.96 49.37Q196.44 49.17 196.93 49.15Q196.97 49.15 197.01 49.15Q197.29 49.15 197.56 49.2Q197.81 49.25 198.06 49.35Q198.24 49.42 198.39 49.52Q198.68 49.71 198.89 50.01Q199.22 50.48 199.22 51.24L199.22 56ZM240.35 56L241.61 56L241.61 51.24Q241.61 50.16 241.15 49.41Q240.89 49 240.54 48.7Q240.26 48.46 239.91 48.28Q239.78 48.22 239.65 48.17Q238.98 47.9 238.2 47.9Q237.81 47.9 237.44 47.97Q237.15 48.03 236.87 48.13Q236.39 48.31 236.06 48.64Q235.95 48.74 235.87 48.86L235.87 48L234.6 48L234.6 56L235.87 56L235.87 51.24Q235.87 50.54 236.2 50.08Q236.21 50.07 236.22 50.06Q236.44 49.77 236.73 49.57Q236.9 49.46 237.09 49.37Q237.57 49.17 238.05 49.15Q238.1 49.15 238.14 49.15Q238.42 49.15 238.69 49.2Q238.94 49.25 239.19 49.35Q239.36 49.42 239.52 49.52Q239.81 49.71 240.02 50.01Q240.35 50.48 240.35 51.24L240.35 56ZM253.58 59.26Q253.61 59.26 253.63 59.26Q255.09 59.26 255.89 58.54Q256 58.44 256.1 58.33Q256.14 58.28 256.19 58.23Q256.92 57.31 256.92 55.82L256.92 48L255.63 48L255.63 48.41Q254.52 47.92 253.47 47.94Q252.59 47.96 251.88 48.31Q251.74 48.38 251.6 48.46Q251.41 48.57 251.24 48.71Q250.68 49.17 250.32 49.89Q249.86 50.81 249.89 52.14Q249.92 53.15 250.34 53.96Q250.39 54.05 250.44 54.13Q250.77 54.7 251.25 55.12Q251.49 55.33 251.78 55.51Q252.1 55.7 252.46 55.83Q253 56.02 253.61 56.04Q253.64 56.04 253.67 56.04Q254.64 56.06 255.62 55.5Q255.62 56.07 255.55 56.46Q255.55 56.47 255.55 56.48Q255.48 56.86 255.31 57.21Q255.18 57.48 254.97 57.66Q254.73 57.85 254.41 57.94Q253.79 58.11 253.08 57.94Q252.55 57.81 252.1 57.55Q251.95 57.46 251.81 57.35L251.01 58.25Q251.49 58.7 252.2 58.98Q252.89 59.25 253.58 59.26ZM183.61 56L184.88 56L184.88 48L183.61 48L183.61 52.83Q183.61 53.56 183.27 54.03Q183.02 54.37 182.7 54.58Q182.57 54.67 182.42 54.73Q181.92 54.96 181.42 54.96Q180.51 54.96 179.91 54.53Q179.85 54.49 179.79 54.44Q179.72 54.38 179.65 54.31Q179.17 53.8 179.17 52.83L179.17 48L177.88 48L177.88 52.83Q177.88 53.66 178.15 54.3Q178.39 54.88 178.8 55.27Q178.85 55.31 178.89 55.35Q179.36 55.77 180.03 55.97Q180.34 56.06 180.66 56.11Q181.03 56.16 181.4 56.15Q182.11 56.12 182.7 55.89Q183.17 55.69 183.47 55.35Q183.55 55.26 183.61 55.16L183.61 56ZM224.56 56L225.77 56L225.77 48L224.56 48L224.56 56ZM214.44 49.53L214.44 54.17Q213.63 54.73 212.85 54.83Q212.27 54.9 211.77 54.74Q211.6 54.69 211.44 54.6Q211.26 54.52 211.1 54.4Q210.69 54.1 210.42 53.6Q210.05 52.92 210.05 51.92Q210.05 50.67 210.67 49.97L210.67 49.97Q210.89 49.72 211.16 49.55Q211.65 49.24 212.29 49.16Q213.29 49.05 214.44 49.53ZM251.57 53.59Q251.17 53 251.15 52.14Q251.14 50.75 251.71 50.01Q251.93 49.72 252.22 49.53Q252.68 49.23 253.31 49.17Q254.32 49.08 255.63 49.67L255.63 54.27Q254.85 54.67 254.07 54.71Q253.35 54.75 252.74 54.51Q252.68 54.48 252.63 54.46Q252.26 54.3 251.98 54.05Q251.75 53.85 251.57 53.59Z" fill="#383838" fill-opacity="1.000000" fill-rule="evenodd"/>
	<path id="Vector 1" d="M12.32 45.69L12.96 33.5C20.39 30.22 25.89 24.9 28.02 19.11L35.36 17.13L26.56 28.04L34.18 39.81L21.12 34.78L12.32 45.69Z" fill="#126893" fill-opacity="1.000000" fill-rule="evenodd"/>
	<path id="Vector 2" d="M21.85 20.76L27.42 19.27C24.9 24.61 18.73 28.86 10.83 30.82L0 26.64L13.5 23.01L14.24 9L21.85 20.76Z" fill="#383838" fill-opacity="1.000000" fill-rule="evenodd"/>
</svg>
